<svg id="Simbolo_Blanco" xmlns="http://www.w3.org/2000/svg" width="91.646" height="170.098" viewBox="0 0 91.646 170.098">
  <path id="Path_99" data-name="Path 99" d="M333.393-117.439a45.539,45.539,0,0,0,30.7-42.883,45.272,45.272,0,0,0-18.685-36.584,12.316,12.316,0,0,0,2.831.338,12.216,12.216,0,0,0,12.268-12.163A12.216,12.216,0,0,0,348.239-220.9a12.216,12.216,0,0,0-12.268,12.163,12.044,12.044,0,0,0,2.894,7.838,45.838,45.838,0,0,0-20.595-4.867,45.683,45.683,0,0,0-45.824,45.44c0,24.711,20,44.864,44.793,45.411a33.434,33.434,0,0,0-20.493,30.722A33.572,33.572,0,0,0,330.421-50.8a33.57,33.57,0,0,0,33.672-33.392,33.541,33.541,0,0,0-30.7-33.25m-46.887-42.883a31.666,31.666,0,0,1,31.764-31.5,31.666,31.666,0,0,1,31.761,31.5,31.665,31.665,0,0,1-31.761,31.494,31.666,31.666,0,0,1-31.764-31.494M330.421-64.74a19.553,19.553,0,0,1-19.614-19.449,19.553,19.553,0,0,1,19.614-19.446,19.552,19.552,0,0,1,19.611,19.446A19.553,19.553,0,0,1,330.421-64.74" transform="translate(-272.446 220.895)" fill="#fff"/>
</svg>
